<svg width="18" height="18" viewBox="0 0 18 18" fill="none" xmlns="http://www.w3.org/2000/svg">
<path d="M16.5 11.0465C14.1839 11.984 11.6523 12.5003 9 12.5003C6.34775 12.5003 3.81608 11.984 1.5 11.0465M12.3333 5.00033V3.33366C12.3333 2.41318 11.5871 1.66699 10.6667 1.66699H7.33333C6.41286 1.66699 5.66667 2.41318 5.66667 3.33366V5.00033M9 10.0003H9.00833M3.16667 16.667H14.8333C15.7538 16.667 16.5 15.9208 16.5 15.0003V6.66699C16.5 5.74652 15.7538 5.00033 14.8333 5.00033H3.16667C2.24619 5.00033 1.5 5.74652 1.5 6.66699V15.0003C1.5 15.9208 2.24619 16.667 3.16667 16.667Z" stroke="#FF3C13" stroke-width="1.5" stroke-linecap="round" stroke-linejoin="round"/>
</svg>
