<svg width="15" height="15" viewBox="0 0 15 15" fill="none" xmlns="http://www.w3.org/2000/svg">
<g clip-path="url(#clip0_358_3783)">
<path d="M1.04953 7.34668L0.0513568 9.65042C0.00329371 9.76553 -0.00528923 9.89336 0.0271406 10.0138C0.0595704 10.1343 0.131196 10.2406 0.230556 10.316C0.339366 10.3466 0.454368 10.3466 0.563177 10.316C0.717354 10.3098 0.863649 10.2458 0.972821 10.1368L3.53255 7.57705L1.04953 7.34668Z" fill="#FF3C13"/>
<path d="M1.04953 7.34622L0.0513568 5.06806C0.00329371 4.95295 -0.00528923 4.82516 0.0271406 4.7047C0.0595704 4.58425 0.131196 4.47797 0.230556 4.40255C0.326388 4.32793 0.442043 4.28338 0.563177 4.27455C0.714354 4.27125 0.861091 4.32624 0.972821 4.42813L3.53255 6.98786L1.04953 7.34622Z" fill="#FF3C13"/>
<path d="M5.47769 8.24268L3.30183 14.0532C3.27231 14.1277 3.26162 14.2083 3.27074 14.2879C3.27985 14.3674 3.30858 14.4435 3.35416 14.5094C3.39975 14.5752 3.46085 14.6287 3.53211 14.6653C3.60338 14.7018 3.68249 14.7202 3.76256 14.7188H4.1722C4.29142 14.7188 4.40897 14.691 4.5156 14.6377C4.62223 14.5844 4.71498 14.507 4.78651 14.4116L9.90597 8.06348L5.47769 8.24268Z" fill="#FF3C13"/>
<path d="M5.47738 6.47563L3.30152 0.639459C3.27043 0.566513 3.25872 0.486773 3.26746 0.40796C3.27621 0.329148 3.30518 0.253937 3.35152 0.189585C3.39785 0.125234 3.46 0.0739112 3.53197 0.0406168C3.60394 0.00732244 3.68321 -0.00682241 3.76226 -0.000472559H4.1719C4.29111 -0.000472559 4.40867 0.0272587 4.5153 0.0805735C4.62193 0.133888 4.71468 0.21131 4.78621 0.306682L9.90566 6.65479L5.47738 6.47563Z" fill="#FF3C13"/>
<path d="M13.8998 6.57806L14.7445 6.96204C14.8209 6.99646 14.8857 7.05219 14.9312 7.12257C14.9767 7.19295 15.0009 7.27499 15.0009 7.3588C15.0009 7.4426 14.9767 7.5246 14.9312 7.59498C14.8857 7.66536 14.8209 7.72113 14.7445 7.75555L13.8998 8.13949C13.5643 8.30208 13.1974 8.38946 12.8247 8.39548H1.02441V6.34769H12.8247C13.1955 6.34571 13.5623 6.4243 13.8998 6.57806Z" fill="#FF3C13"/>
</g>
<defs>
<clipPath id="clip0_358_3783">
<rect width="15" height="14.7184" fill="white"/>
</clipPath>
</defs>
</svg>
