<svg width="20" height="20" viewBox="0 0 20 20" fill="none" xmlns="http://www.w3.org/2000/svg">
<path d="M10 6.66667V17.5M10 6.66667C10 6.66667 10 5.42269 10 5C10 4.07953 10.7462 3.33333 11.6667 3.33333C12.5871 3.33333 13.3333 4.07953 13.3333 5C13.3333 5.92047 12.5871 6.66667 11.6667 6.66667C11.1689 6.66667 10 6.66667 10 6.66667ZM10 6.66667C10 6.66667 10 5.05243 10 4.58333C10 3.43274 9.06726 2.5 7.91667 2.5C6.76607 2.5 5.83333 3.43274 5.83333 4.58333C5.83333 5.73393 6.76607 6.66667 7.91667 6.66667C8.59817 6.66667 10 6.66667 10 6.66667ZM4.16667 10H15.8333M4.16667 10C3.24619 10 2.5 9.25381 2.5 8.33333C2.5 7.41286 3.24619 6.66667 4.16667 6.66667H15.8333C16.7538 6.66667 17.5 7.41286 17.5 8.33333C17.5 9.25381 16.7538 10 15.8333 10M4.16667 10L4.16667 15.8333C4.16667 16.7538 4.91286 17.5 5.83333 17.5H14.1667C15.0871 17.5 15.8333 16.7538 15.8333 15.8333V10" stroke="#FF3C13" stroke-width="1.5" stroke-linecap="round" stroke-linejoin="round"/>
</svg>
