<svg width="18" height="18" viewBox="0 0 18 18" fill="none" xmlns="http://www.w3.org/2000/svg">
<path fill-rule="evenodd" clip-rule="evenodd" d="M4.875 3.41207C4.875 3.3305 4.79463 3.27326 4.71927 3.30448C3.73915 3.71046 2.96046 4.48915 2.55448 5.46927C2.25 6.20435 2.25 7.13623 2.25 9C2.25 10.8638 2.25 11.7956 2.55448 12.5307C2.96046 13.5108 3.73915 14.2895 4.71927 14.6955C5.45435 15 6.38623 15 8.25 15H9.75C11.6138 15 12.5456 15 13.2807 14.6955C14.2608 14.2895 15.0395 13.5108 15.4455 12.5307C15.75 11.7956 15.75 10.8638 15.75 9C15.75 7.13623 15.75 6.20435 15.4455 5.46927C15.0395 4.48915 14.2608 3.71046 13.2807 3.30448C13.2054 3.27326 13.125 3.33049 13.125 3.41207L13.125 4.875C13.125 5.70343 12.4534 6.375 11.625 6.375C10.7966 6.375 10.125 5.70343 10.125 4.875L10.125 3.29985C10.125 3.15853 10.125 3.08787 10.0811 3.04394C10.0371 3.00001 9.96651 3.00001 9.82526 3C9.80034 3 9.77526 3 9.75 3H8.25C8.22474 3 8.19966 3 8.17475 3C8.03349 3.00001 7.96287 3.00001 7.91893 3.04394C7.875 3.08787 7.875 3.15853 7.875 3.29985L7.875 4.875C7.875 5.70343 7.20343 6.375 6.375 6.375C5.54658 6.375 4.875 5.70343 4.875 4.875L4.875 3.41207Z" fill="#7E869E" fill-opacity="0.25"/>
<path d="M6.375 1.875L6.375 4.875" stroke="#222222" stroke-linecap="round"/>
<path d="M11.625 1.875L11.625 4.875" stroke="#222222" stroke-linecap="round"/>
<circle cx="4.5" cy="8.5" r="0.5" fill="white"/>
<circle cx="6.5" cy="8.5" r="0.5" fill="white"/>
<circle cx="8.5" cy="8.5" r="0.5" fill="white"/>
<circle cx="10.5" cy="8.5" r="0.5" fill="white"/>
<circle cx="4.5" cy="10.5" r="0.5" fill="white"/>
<circle cx="6.5" cy="10.5" r="0.5" fill="white"/>
<circle cx="8.5" cy="10.5" r="0.5" fill="white"/>
<circle cx="10.5" cy="10.5" r="0.5" fill="white"/>
<circle cx="4.5" cy="12.5" r="0.5" fill="white"/>
<circle cx="6.5" cy="12.5" r="0.5" fill="white"/>
<circle cx="8.5" cy="12.5" r="0.5" fill="white"/>
<circle cx="10.5" cy="12.5" r="0.5" fill="white"/>
<circle cx="12.5" cy="8.5" r="0.5" fill="#222222"/>
<circle cx="12.5" cy="10.5" r="0.5" fill="#222222"/>
<circle cx="12.5" cy="12.5" r="0.5" fill="#222222"/>
</svg>
