<svg width="156" height="36" viewBox="0 0 156 36" fill="none" xmlns="http://www.w3.org/2000/svg">
<g clip-path="url(#clip0_710_1659)">
<mask id="mask0_710_1659" style="mask-type:luminance" maskUnits="userSpaceOnUse" x="0" y="-1" width="19" height="37">
<path d="M0 -0.00244141C11.289 6.65014 15.494 20.9953 13.4041 36C15.963 33.6236 17.2739 30.464 18.3176 27.0081C15.7638 9.13775 6.31006 2.33695 0 -0.00244141Z" fill="white"/>
</mask>
<g mask="url(#mask0_710_1659)">
<path d="M5.81867 35.9999L3.73633 24.1597L18.3203 21.6968V35.9999H5.81867Z" fill="#DC9D1F"/>
<path d="M3.73631 24.1598L3.70605 23.9893L18.3203 21.5239V21.6968L3.73631 24.1598Z" fill="#DC9D1F"/>
<path d="M3.70603 23.9894L3.67578 23.8214L18.3203 21.3486V21.524L3.70603 23.9894Z" fill="#DC9D1F"/>
<path d="M3.67576 23.8215L3.64551 23.6511L18.3202 21.1733V21.3487L3.67576 23.8215Z" fill="#DC9D1F"/>
<path d="M3.64541 23.6507L3.61768 23.4802L18.3201 21V21.1729L3.64541 23.6507Z" fill="#DC9D1F"/>
<path d="M3.61765 23.4803L3.5874 23.3123L18.3201 20.8247V21.0001L3.61765 23.4803Z" fill="#DC9D1F"/>
<path d="M3.58738 23.3124L3.55713 23.1419L18.2974 20.6543L18.3201 20.7729V20.8247L3.58738 23.3124Z" fill="#DC9D1F"/>
<path d="M18.2675 20.4851L3.5249 22.9727L3.55485 23.1431L18.2975 20.6556L18.2675 20.4851Z" fill="#DC9D1F"/>
<path d="M18.2387 20.3147L3.49609 22.8022L3.52604 22.9727L18.2687 20.4851L18.2387 20.3147Z" fill="#DC9D1F"/>
<path d="M18.2075 20.1468L3.46484 22.6343L3.49479 22.8047L18.2374 20.3172L18.2075 20.1468Z" fill="#DC9D1F"/>
<path d="M18.1782 19.9763L3.43555 22.4639L3.46549 22.6343L18.2081 20.1468L18.1782 19.9763Z" fill="#DC9D1F"/>
<path d="M18.1469 19.8059L3.4043 22.2935L3.43424 22.4639L18.1769 19.9764L18.1469 19.8059Z" fill="#DC9D1F"/>
<path d="M18.1181 19.638L3.37549 22.1255L3.40543 22.2959L18.1481 19.8084L18.1181 19.638Z" fill="#DC9D1F"/>
<path d="M18.0888 19.4671L3.34619 21.9546L3.37614 22.125L18.1188 19.6375L18.0888 19.4671Z" fill="#DC9D1F"/>
<path d="M18.06 19.2967L3.31738 21.7842L3.34733 21.9546L18.09 19.4671L18.06 19.2967Z" fill="#DC9D1F"/>
<path d="M18.0288 19.1287L3.28613 21.6162L3.31608 21.7866L18.0587 19.2991L18.0288 19.1287Z" fill="#DC9D1F"/>
<path d="M17.9995 18.9588L3.25684 21.4463L3.28678 21.6167L18.0294 19.1292L17.9995 18.9588Z" fill="#DC9D1F"/>
<path d="M17.9682 18.7884L3.22559 21.2759L3.25553 21.4463L17.9982 18.9588L17.9682 18.7884Z" fill="#DC9D1F"/>
<path d="M17.9394 18.6204L3.19678 21.1079L3.22672 21.2783L17.9694 18.7908L17.9394 18.6204Z" fill="#DC9D1F"/>
<path d="M17.9101 18.4495L3.16748 20.937L3.19743 21.1074L17.9401 18.6199L17.9101 18.4495Z" fill="#DC9D1F"/>
<path d="M17.8813 18.2791L3.13867 20.7666L3.16862 20.937L17.9113 18.4495L17.8813 18.2791Z" fill="#DC9D1F"/>
<path d="M17.8501 18.1111L3.10742 20.5986L3.13737 20.769L17.88 18.2815L17.8501 18.1111Z" fill="#DC9D1F"/>
<path d="M17.8208 17.9407L3.07812 20.4282L3.10807 20.5986L17.8507 18.1111L17.8208 17.9407Z" fill="#DC9D1F"/>
<path d="M17.79 17.7727L3.04736 20.2603L3.07731 20.4307L17.8199 17.9431L17.79 17.7727Z" fill="#DC9D1F"/>
<path d="M17.7607 17.6028L3.01807 20.0903L3.04801 20.2607L17.7906 17.7732L17.7607 17.6028Z" fill="#DC9D1F"/>
<path d="M17.7314 17.4319L2.98877 19.9194L3.01872 20.0898L17.7614 17.6023L17.7314 17.4319Z" fill="#DC9D1F"/>
<path d="M17.7031 17.2639L2.96045 19.7515L2.9904 19.9219L17.733 17.4344L17.7031 17.2639Z" fill="#DC9D1F"/>
<path d="M17.6713 17.0935L2.92871 19.5811L2.95866 19.7515L17.7013 17.2639L17.6713 17.0935Z" fill="#DC9D1F"/>
<path d="M17.642 16.9231L2.89941 19.4106L2.92936 19.5811L17.672 17.0935L17.642 16.9231Z" fill="#DC9D1F"/>
<path d="M17.6113 16.7552L2.86865 19.2427L2.8986 19.4131L17.6412 16.9256L17.6113 16.7552Z" fill="#DC9D1F"/>
<path d="M17.5844 16.5843L2.8418 19.0718L2.87174 19.2422L17.6144 16.7547L17.5844 16.5843Z" fill="#DC9D1F"/>
<path d="M17.5527 16.4138L2.81006 18.9014L2.84 19.0718L17.5826 16.5843L17.5527 16.4138Z" fill="#DC9D1F"/>
<path d="M17.5244 16.2464L2.78174 18.7339L2.81168 18.9043L17.5543 16.4168L17.5244 16.2464Z" fill="#DC9D1F"/>
<path d="M17.4926 16.076L2.75 18.5635L2.77995 18.7339L17.5226 16.2464L17.4926 16.076Z" fill="#DC9D1F"/>
<path d="M17.4633 15.9055L2.7207 18.3931L2.75065 18.5635L17.4933 16.076L17.4633 15.9055Z" fill="#DC9D1F"/>
<path d="M17.4326 15.7376L2.68994 18.2251L2.71989 18.3955L17.4625 15.908L17.4326 15.7376Z" fill="#DC9D1F"/>
<path d="M17.4033 15.5667L2.66064 18.0542L2.69059 18.2246L17.4332 15.7371L17.4033 15.5667Z" fill="#DC9D1F"/>
<path d="M17.374 15.3963L2.63135 17.8838L2.66129 18.0542L17.4039 15.5667L17.374 15.3963Z" fill="#DC9D1F"/>
<path d="M17.3432 15.2283L2.60059 17.7158L2.63053 17.8862L17.3732 15.3987L17.3432 15.2283Z" fill="#DC9D1F"/>
<path d="M17.3139 15.0579L2.57129 17.5454L2.60124 17.7158L17.3439 15.2283L17.3139 15.0579Z" fill="#DC9D1F"/>
<path d="M17.2822 14.8875L2.53955 17.375L2.5695 17.5454L17.3121 15.0579L17.2822 14.8875Z" fill="#DC9D1F"/>
<path d="M17.2539 14.72L2.51123 17.2075L2.54118 17.3779L17.2838 14.8904L17.2539 14.72Z" fill="#DC9D1F"/>
<path d="M17.2246 14.5491L2.48193 17.0366L2.51188 17.207L17.2545 14.7195L17.2246 14.5491Z" fill="#DC9D1F"/>
<path d="M17.1953 14.3787L2.45264 16.8662L2.48258 17.0366L17.2252 14.5491L17.1953 14.3787Z" fill="#DC9D1F"/>
<path d="M17.1645 14.2107L2.42188 16.6982L2.45182 16.8687L17.1945 14.3811L17.1645 14.2107Z" fill="#DC9D1F"/>
<path d="M17.1352 14.0403L2.39258 16.5278L2.42252 16.6982L17.1652 14.2107L17.1352 14.0403Z" fill="#DC9D1F"/>
<path d="M17.1035 13.8699L2.36084 16.3574L2.39079 16.5278L17.1334 14.0403L17.1035 13.8699Z" fill="#DC9D1F"/>
<path d="M17.0752 13.7019L2.33252 16.1895L2.36247 16.3599L17.1051 13.8723L17.0752 13.7019Z" fill="#DC9D1F"/>
<path d="M17.0459 13.5315L2.30322 16.019L2.33317 16.1895L17.0758 13.7019L17.0459 13.5315Z" fill="#DC9D1F"/>
<path d="M17.0171 13.3636L2.27441 15.8511L2.30436 16.0215L17.047 13.534L17.0171 13.3636Z" fill="#DC9D1F"/>
<path d="M16.9858 13.1931L2.24316 15.6807L2.27311 15.8511L17.0157 13.3636L16.9858 13.1931Z" fill="#DC9D1F"/>
<path d="M16.9565 13.0227L2.21387 15.5103L2.24381 15.6807L16.9865 13.1931L16.9565 13.0227Z" fill="#DC9D1F"/>
<path d="M16.9253 12.8548L2.18262 15.3423L2.21256 15.5127L16.9552 13.0252L16.9253 12.8548Z" fill="#DC9D1F"/>
<path d="M16.8964 12.6844L2.15381 15.1719L2.18375 15.3423L16.9264 12.8548L16.8964 12.6844Z" fill="#DC9D1F"/>
<path d="M16.8671 12.5135L2.12451 15.001L2.15446 15.1714L16.8971 12.6839L16.8671 12.5135Z" fill="#DC9D1F"/>
<path d="M16.8383 12.3455L2.0957 14.833L2.12565 15.0034L16.8683 12.5159L16.8383 12.3455Z" fill="#DC9D1F"/>
<path d="M16.8071 12.1751L2.06445 14.6626L2.0944 14.833L16.837 12.3455L16.8071 12.1751Z" fill="#DC9D1F"/>
<path d="M16.7778 12.0052L2.03516 14.4927L2.0651 14.6631L16.8077 12.1756L16.7778 12.0052Z" fill="#DC9D1F"/>
<path d="M16.7465 11.8372L2.00391 14.3247L2.03385 14.4951L16.7765 12.0076L16.7465 11.8372Z" fill="#DC9D1F"/>
<path d="M16.7202 11.6663L1.97754 14.1538L2.00748 14.3242L16.7501 11.8367L16.7202 11.6663Z" fill="#DC9D1F"/>
<path d="M16.6884 11.4959L1.9458 13.9834L1.97575 14.1538L16.7184 11.6663L16.6884 11.4959Z" fill="#DC9D1F"/>
<path d="M16.6596 11.3279L1.91699 13.8154L1.94694 13.9858L16.6896 11.4983L16.6596 11.3279Z" fill="#DC9D1F"/>
<path d="M16.6284 11.1575L1.88574 13.645L1.91569 13.8154L16.6583 11.3279L16.6284 11.1575Z" fill="#DC9D1F"/>
<path d="M16.5991 10.9871L1.85645 13.4746L1.88639 13.645L16.629 11.1575L16.5991 10.9871Z" fill="#DC9D1F"/>
<path d="M16.5678 10.8191L1.8252 13.3066L1.85514 13.4771L16.5978 10.9895L16.5678 10.8191Z" fill="#DC9D1F"/>
<path d="M16.5415 10.6487L1.79883 13.1362L1.82877 13.3066L16.5714 10.8191L16.5415 10.6487Z" fill="#DC9D1F"/>
<path d="M16.5097 10.4783L1.76709 12.9658L1.79704 13.1362L16.5397 10.6487L16.5097 10.4783Z" fill="#DC9D1F"/>
<path d="M16.4785 10.3103L1.73584 12.7979L1.76579 12.9683L16.5084 10.4807L16.4785 10.3103Z" fill="#DC9D1F"/>
<path d="M16.4497 10.1399L1.70703 12.6274L1.73698 12.7979L16.4796 10.3103L16.4497 10.1399Z" fill="#DC9D1F"/>
<path d="M16.4179 9.96951L1.67529 12.457L1.70524 12.6274L16.4479 10.1399L16.4179 9.96951Z" fill="#DC9D1F"/>
<path d="M16.3891 9.80154L1.64648 12.2891L1.67643 12.4595L16.4191 9.97196L16.3891 9.80154Z" fill="#DC9D1F"/>
<path d="M16.3603 9.63065L1.61768 12.1182L1.64762 12.2886L16.3903 9.80106L16.3603 9.63065Z" fill="#DC9D1F"/>
<path d="M16.3315 9.46268L1.58887 11.9502L1.61881 12.1206L16.3614 9.63309L16.3315 9.46268Z" fill="#DC9D1F"/>
<path d="M16.2998 9.29276L1.55713 11.7803L1.58707 11.9507L16.3297 9.46317L16.2998 9.29276Z" fill="#DC9D1F"/>
<path d="M16.271 9.12234L1.52832 11.6099L1.55827 11.7803L16.3009 9.29276L16.271 9.12234Z" fill="#DC9D1F"/>
<path d="M16.2397 8.95438L1.49707 11.4419L1.52702 11.6123L16.2697 9.12479L16.2397 8.95438Z" fill="#DC9D1F"/>
<path d="M16.2104 8.78397L1.46777 11.2715L1.49772 11.4419L16.2404 8.95438L16.2104 8.78397Z" fill="#DC9D1F"/>
<path d="M16.1816 8.61307L1.43896 11.1006L1.46891 11.271L16.2115 8.78348L16.1816 8.61307Z" fill="#DC9D1F"/>
<path d="M16.1528 8.4451L1.41016 10.9326L1.4401 11.103L16.1827 8.61551L16.1528 8.4451Z" fill="#DC9D1F"/>
<path d="M16.1211 8.27469L1.37842 10.7622L1.40836 10.9326L16.151 8.4451L16.1211 8.27469Z" fill="#DC9D1F"/>
<path d="M16.0922 8.10428L1.34961 10.5918L1.37956 10.7622L16.1222 8.27469L16.0922 8.10428Z" fill="#DC9D1F"/>
<path d="M16.061 7.93631L1.31836 10.4238L1.34831 10.5942L16.0909 8.10672L16.061 7.93631Z" fill="#DC9D1F"/>
<path d="M16.0341 7.7659L1.2915 10.2534L1.32145 10.4238L16.0641 7.93631L16.0341 7.7659Z" fill="#DC9D1F"/>
<path d="M16.0029 7.59549L1.26025 10.083L1.2902 10.2534L16.0328 7.7659L16.0029 7.59549Z" fill="#DC9D1F"/>
<path d="M15.9741 7.42752L1.23145 9.91504L1.26139 10.0855L16.004 7.59794L15.9741 7.42752Z" fill="#DC9D1F"/>
<path d="M15.9423 7.25711L1.19971 9.74463L1.22965 9.91504L15.9723 7.42753L15.9423 7.25711Z" fill="#DC9D1F"/>
<path d="M15.9135 7.0867L1.1709 9.57422L1.20084 9.74463L15.9435 7.25711L15.9135 7.0867Z" fill="#DC9D1F"/>
<path d="M15.8823 6.91873L1.13965 9.40625L1.16959 9.57666L15.9122 7.08915L15.8823 6.91873Z" fill="#DC9D1F"/>
<path d="M15.8554 6.74783L1.11279 9.23535L1.14274 9.40577L15.8854 6.91825L15.8554 6.74783Z" fill="#DC9D1F"/>
<path d="M15.8242 6.57742L1.08154 9.06494L1.11149 9.23536L15.8541 6.74784L15.8242 6.57742Z" fill="#DC9D1F"/>
<path d="M1.08151 9.06608L0 2.91004V0H14.6672L15.8243 6.576L1.08151 9.06608Z" fill="#DC9D1F"/>
</g>
<path d="M17.3772 11.7686C8.01929 1.73914 5.08233 1.83301 0 -0.00244141C9.76382 4.32803 15.4663 13.0359 18.31 27.0081C19.094 24.0066 21.5318 11.445 30.3503 6.23512C30.3578 6.23512 21.4083 4.40214 17.3772 11.7686Z" fill="white"/>
<path d="M24.915 21.845C25.0007 24.1078 26.7881 25.0984 28.8502 25.0984C30.0489 25.1205 31.2413 24.9245 32.367 24.5203L32.846 26.6917C31.4301 27.242 29.9169 27.5115 28.3939 27.4847C24.257 27.4847 21.8394 24.9798 21.8394 21.1533C21.8394 17.6948 23.9746 14.4463 28.0738 14.4463C32.2158 14.4463 33.5645 17.7838 33.5645 20.5184C33.5718 20.9632 33.5338 21.4076 33.4511 21.845H24.915ZM30.5191 19.6439C30.5343 18.4878 30.0149 16.6005 27.862 16.6005C25.878 16.6005 25.0536 18.3667 24.9099 19.6439H30.5191ZM31.9687 9.31055L28.7721 13.105H26.5385L28.8074 9.31055H31.9687Z" fill="white"/>
<path d="M34.8451 18.4409C34.8451 16.9983 34.7997 15.81 34.7417 14.7354H37.4921L37.6408 16.5684H37.7165C38.1163 15.9033 38.6915 15.3559 39.3818 14.9838C40.072 14.6117 40.8518 14.4286 41.6391 14.4538C42.3984 14.4316 43.146 14.6413 43.7783 15.0537C44.4107 15.4662 44.8965 16.0612 45.1685 16.7562H45.219C45.622 16.1247 46.1605 15.5869 46.7971 15.1801C47.561 14.6744 48.4671 14.4153 49.3887 14.439C51.4937 14.439 53.6416 15.852 53.6416 19.8564V27.2081H50.4853V20.2912C50.4853 18.2087 49.7517 16.9884 48.2164 16.9884C47.1148 16.9884 46.3055 17.7517 45.9753 18.6509C45.8665 18.9923 45.8112 19.348 45.8114 19.7057V27.1982H42.6652V20.0071C42.6652 18.2482 41.9492 17.018 40.4669 17.018C39.2593 17.018 38.4501 17.9469 38.1476 18.8016C38.0369 19.1391 37.9833 19.4921 37.9887 19.8465V27.2279H34.8451V18.4409Z" fill="white"/>
<path d="M62.9038 27.2154L62.6819 25.8246H62.6038C61.8324 26.8128 60.4987 27.4971 58.85 27.4971C56.2635 27.4971 54.8315 25.6888 54.8315 23.7916C54.8315 20.6394 57.6954 19.0436 62.3945 19.0634V18.8559C62.3945 18.0357 62.0643 16.6721 59.808 16.6795C58.6009 16.6839 57.4168 17.0028 56.3769 17.6034L55.7391 15.5605C56.7021 14.9849 58.3509 14.4513 60.3576 14.4513C64.4441 14.4513 65.6113 16.976 65.6113 19.7155V24.2066C65.5946 25.2132 65.6612 26.2194 65.8105 27.2154H62.9038ZM62.4752 21.0989C60.2063 21.0693 58.0282 21.5411 58.0282 23.4408C58.0282 24.6636 58.845 25.2392 59.8635 25.2392C60.4159 25.2477 60.9571 25.0851 61.4097 24.7746C61.8624 24.4641 62.2035 24.0216 62.3844 23.51C62.4472 23.2863 62.4769 23.0551 62.4727 22.8232L62.4752 21.0989ZM64.4441 9.31055L61.2475 13.105H59.0139L61.2828 9.31055H64.4441Z" fill="white"/>
<path d="M69.4861 14.7281L71.7827 21.4226C72.0348 22.1958 72.3146 23.1519 72.5012 23.8435H72.5768C72.776 23.142 73.013 22.2032 73.2525 21.3955L75.2491 14.7256H78.6852L75.4911 23.2482C73.744 27.9097 72.5617 29.9798 71.0592 31.2767C70.112 32.1143 68.9397 32.6681 67.681 32.8726L66.9525 30.2145C67.6205 30.0369 68.2511 29.745 68.8155 29.3524C69.561 28.84 70.1669 28.1564 70.5802 27.3613C70.6947 27.1966 70.765 27.0063 70.7844 26.8079C70.7733 26.5927 70.7157 26.3822 70.6155 26.1903L65.9214 14.7281H69.4861Z" fill="white"/>
<path d="M79.1343 27.2156C79.1923 26.3757 79.2376 24.9923 79.2376 23.7127V9.00439H82.4595V16.4475H82.5124C83.2939 15.2123 84.6855 14.4465 86.5813 14.4465C89.6897 14.4465 91.9157 16.9687 91.893 20.7755C91.893 25.2641 88.9914 27.4972 86.0948 27.4972C84.4511 27.4972 82.999 26.8821 82.0788 25.3357H82.0208L81.8771 27.2156H79.1343ZM82.4595 22.0477C82.4586 22.2969 82.4857 22.5454 82.5401 22.7888C82.6932 23.4158 83.0567 23.9744 83.5723 24.3748C84.088 24.7753 84.7259 24.9945 85.3838 24.9973C87.4006 24.9973 88.6258 23.4237 88.6258 20.9015C88.6258 18.7029 87.5443 16.8971 85.4191 16.8971C84.748 16.9124 84.1016 17.1481 83.5837 17.5665C83.0657 17.9849 82.7062 18.5617 82.5628 19.2044C82.4965 19.4721 82.4618 19.7465 82.4595 20.022V22.0477Z" fill="white"/>
<path d="M100.414 27.2153L100.195 25.8245H100.117C99.3426 26.8127 98.0115 27.4969 96.3603 27.4969C93.7762 27.4969 92.3418 25.6887 92.3418 23.7915C92.3418 20.6393 95.2082 19.0435 99.9048 19.0633V18.8558C99.9048 18.0356 99.572 16.672 97.3157 16.6794C96.1097 16.6869 94.9273 17.0083 93.8897 17.6107L93.2494 15.5603C94.2124 14.9848 95.8636 14.4512 97.8678 14.4512C101.957 14.4512 103.124 16.9758 103.124 19.7154V24.2065C103.108 25.2129 103.174 26.2191 103.321 27.2153H100.414ZM99.9905 21.0988C97.7216 21.0692 95.5409 21.541 95.5409 23.4407C95.5409 24.6635 96.3603 25.2391 97.3788 25.2391C97.9314 25.2484 98.4729 25.0861 98.9257 24.7755C99.3785 24.4649 99.7195 24.0219 99.8997 23.5098C99.9646 23.2866 99.9951 23.0552 99.9905 22.8231V21.0988Z" fill="white"/>
<path d="M106.986 14.7281L109.283 21.4226C109.535 22.1958 109.812 23.1519 110.001 23.8435H110.074C110.274 23.142 110.513 22.2032 110.75 21.3955L112.747 14.7256H116.183L112.991 23.2482C111.242 27.9097 110.059 29.9798 108.559 31.2767C107.611 32.1145 106.438 32.6683 105.179 32.8726L104.453 30.2145C105.12 30.0373 105.75 29.7454 106.313 29.3524C107.058 28.8392 107.664 28.1557 108.078 27.3613C108.191 27.196 108.26 27.0059 108.279 26.8079C108.268 26.5927 108.211 26.3822 108.111 26.1903L103.434 14.7281H106.986Z" fill="white"/>
<path d="M116.283 24.3129C117.277 24.8688 118.392 25.1807 119.535 25.222C120.952 25.222 121.585 24.639 121.585 23.8213C121.585 23.0037 121.061 22.5467 119.493 22.0007C116.999 21.1633 115.963 19.8342 115.963 18.3545C115.963 16.1584 117.826 14.4465 120.798 14.4465C121.97 14.4259 123.129 14.68 124.179 15.1876L123.539 17.4109C122.714 16.9596 121.789 16.7129 120.844 16.692C119.699 16.692 119.059 17.2478 119.059 18.0161C119.059 18.7844 119.674 19.1895 121.285 19.7651C123.604 20.5679 124.673 21.7265 124.686 23.5669C124.686 25.8445 122.876 27.4873 119.51 27.4873C118.163 27.5114 116.83 27.2111 115.628 26.6128L116.283 24.3129Z" fill="white"/>
<path d="M138.153 20.8493C138.153 25.4391 134.876 27.4969 131.599 27.4969C128.004 27.4969 125.221 25.0661 125.221 21.0741C125.221 16.9783 127.974 14.4561 131.816 14.4561C135.615 14.4462 138.153 17.0647 138.153 20.8493ZM128.541 20.9851C128.541 23.3888 129.766 25.2045 131.71 25.2045C133.558 25.2045 134.841 23.4555 134.841 20.9431C134.841 18.9817 133.953 16.7436 131.73 16.7436C129.506 16.7436 128.541 18.9027 128.541 20.995V20.9851Z" fill="white"/>
<path d="M138.532 26.2104C138.522 26.0571 138.544 25.9035 138.598 25.7593C138.652 25.6151 138.736 25.4835 138.845 25.3727C138.953 25.2619 139.084 25.1745 139.229 25.1158C139.374 25.0572 139.529 25.0286 139.686 25.032C140.367 25.032 140.826 25.5113 140.833 26.2104C140.84 26.3629 140.816 26.5153 140.762 26.6583C140.707 26.8014 140.623 26.9321 140.516 27.0425C140.408 27.153 140.279 27.2409 140.136 27.301C139.992 27.3611 139.838 27.3921 139.682 27.3921C139.527 27.3921 139.372 27.3611 139.229 27.301C139.086 27.2409 138.956 27.153 138.849 27.0425C138.741 26.9321 138.658 26.8014 138.603 26.6583C138.549 26.5153 138.524 26.3629 138.532 26.2104Z" fill="white"/>
<path d="M142.754 20.0073L143.946 23.6733C144.158 24.3082 144.315 24.8887 144.451 25.4741H144.496C144.632 24.8788 144.796 24.3106 145 23.6733L146.162 20.0073H148.119L145.308 27.2231H143.475L140.74 20.0073H142.754Z" fill="white"/>
<path d="M148.507 22.1465C148.507 21.314 148.479 20.6248 148.446 19.9998H150.075L150.166 21.0843H150.208C150.456 20.6957 150.803 20.3773 151.214 20.1607C151.626 19.944 152.088 19.8366 152.556 19.8491C153.839 19.8491 155.172 20.6594 155.172 22.942V27.228H153.309V23.1445C153.309 22.1095 152.921 21.3214 151.905 21.3214C151.579 21.3272 151.264 21.4337 151.003 21.6258C150.743 21.8179 150.551 22.0858 150.456 22.3911C150.394 22.5778 150.366 22.7731 150.37 22.9691V27.2156H148.507V22.1465Z" fill="white"/>
<path d="M132.708 9.34257L134.959 13.0085H133.194L131.858 10.5975H131.808L130.494 13.0085H128.805L130.998 9.34257H132.708ZM138.151 7.23785L135.559 10.6197H134.225L136.005 7.23291L138.151 7.23785Z" fill="white"/>
</g>
<defs>
<clipPath id="clip0_710_1659">
<rect width="155.172" height="36" fill="white"/>
</clipPath>
</defs>
</svg>
