<svg width="16" height="16" viewBox="0 0 16 16" fill="none" xmlns="http://www.w3.org/2000/svg">
<path d="M8 2.90278C8.48863 2.34917 9.20354 2 10 2C11.4728 2 12.6667 3.19391 12.6667 4.66667C12.6667 6.13943 11.4728 7.33333 10 7.33333C9.20354 7.33333 8.48863 6.98416 8 6.43055M10 14H2V13.3333C2 11.1242 3.79086 9.33333 6 9.33333C8.20914 9.33333 10 11.1242 10 13.3333V14ZM10 14H14V13.3333C14 11.1242 12.2091 9.33333 10 9.33333C9.27143 9.33333 8.58835 9.52812 8 9.86846M8.66667 4.66667C8.66667 6.13943 7.47276 7.33333 6 7.33333C4.52724 7.33333 3.33333 6.13943 3.33333 4.66667C3.33333 3.19391 4.52724 2 6 2C7.47276 2 8.66667 3.19391 8.66667 4.66667Z" stroke="#FF3C13" stroke-width="1.5" stroke-linecap="round" stroke-linejoin="round"/>
</svg>
