<svg width="16" height="16" viewBox="0 0 16 16" fill="none" xmlns="http://www.w3.org/2000/svg">
<path d="M12.3098 11.5481C11.7135 12.1444 10.5735 13.2844 9.61561 14.2423C8.72297 15.1349 7.27669 15.135 6.38407 14.2423C5.44419 13.3024 4.32334 12.1816 3.72697 11.5481C1.3095 9.13065 1.3095 5.30845 3.72697 2.89097C6.14445 0.473495 9.96661 0.473495 12.3098 2.89097C14.6873 5.30845 14.6873 9.13065 12.3098 11.5481Z" stroke="#FF3C13" stroke-width="1.5" stroke-linecap="round" stroke-linejoin="round"/>
<path d="M10.2855 7.23809C10.2855 8.50046 9.26219 9.52381 7.99983 9.52381C6.73747 9.52381 5.71412 8.50046 5.71412 7.23809C5.71412 5.97573 6.73747 4.95238 7.99983 4.95238C9.26219 4.95238 10.2855 5.97573 10.2855 7.23809Z" stroke="#FF3C13" stroke-width="1.5" stroke-linecap="round" stroke-linejoin="round"/>
</svg>
