<svg width="15" height="15" viewBox="0 0 15 15" fill="none" xmlns="http://www.w3.org/2000/svg">
<path d="M9.375 3.125V4.375M9.375 6.875V8.125M9.375 10.625V11.875M3.125 3.125C2.43464 3.125 1.875 3.68464 1.875 4.375V6.25C2.56536 6.25 3.125 6.80964 3.125 7.5C3.125 8.19036 2.56536 8.75 1.875 8.75V10.625C1.875 11.3154 2.43464 11.875 3.125 11.875H11.875C12.5654 11.875 13.125 11.3154 13.125 10.625V8.75C12.4346 8.75 11.875 8.19036 11.875 7.5C11.875 6.80964 12.4346 6.25 13.125 6.25V4.375C13.125 3.68464 12.5654 3.125 11.875 3.125H3.125Z" stroke="#0A7C79" stroke-linecap="round" stroke-linejoin="round"/>
</svg>
