<svg width="109" height="35" viewBox="0 0 102 35" fill="none" xmlns="http://www.w3.org/2000/svg">
<g clip-path="url(#clip0_309_816)">
<path d="M31.9999 20.712L15.1067 32.6881C14.9235 32.8184 14.7166 32.911 14.4979 32.9604C14.2792 33.0098 14.053 33.0151 13.8322 32.9761C13.6115 32.937 13.4005 32.8543 13.2115 32.7327C13.0224 32.6111 12.859 32.453 12.7305 32.2675L7.72848 25.0545L7.9262 24.9143C8.16734 24.7612 8.37513 24.5602 8.53691 24.3234C8.6987 24.0866 8.8111 23.8191 8.86728 23.537C8.92345 23.2549 8.92222 22.9643 8.86366 22.6827C8.8051 22.4011 8.69044 22.1345 8.52665 21.8991C8.36287 21.6638 8.15339 21.4645 7.91096 21.3136C7.66853 21.1626 7.39824 21.0631 7.11653 21.021C6.83481 20.979 6.54758 20.9953 6.27231 21.069C5.99704 21.1427 5.7395 21.2723 5.51536 21.4497L5.31764 21.5917L0.308638 14.3699C0.0497049 13.9964 -0.051896 13.5343 0.0261533 13.0851C0.104203 12.6359 0.355519 12.2364 0.724898 11.9744L17.6164 0L29.1156 7.30237L31.9999 20.712ZM8.39449 25.1649L13.1312 31.9853C13.2228 32.1174 13.3392 32.23 13.4739 32.3166C13.6086 32.4031 13.7588 32.462 13.9161 32.4899C14.0733 32.5177 14.2344 32.5139 14.3902 32.4788C14.546 32.4436 14.6934 32.3778 14.824 32.285L31.4622 20.4982L28.6872 7.60554L17.632 0.595826L1.00414 12.3774C0.873018 12.4698 0.761249 12.5875 0.675248 12.7236C0.589247 12.8598 0.530708 13.0118 0.50299 13.1709C0.475272 13.3299 0.478921 13.493 0.513728 13.6506C0.548535 13.8083 0.613815 13.9574 0.70582 14.0895L5.44598 20.9082C6.00489 20.5927 6.65985 20.4979 7.28393 20.6424C7.90802 20.7869 8.45679 21.1604 8.82392 21.6904C9.19104 22.2204 9.35037 22.8692 9.27103 23.5111C9.19169 24.1531 8.87934 24.7424 8.39449 25.1649Z" fill="url(#paint0_linear_309_816)"/>
<path d="M19.6059 28.81L19.2104 28.265L19.4186 28.1248L19.8123 28.668L19.6059 28.81ZM18.8167 27.72L18.4213 27.175L18.6294 27.0348L19.0249 27.5798L18.8167 27.72ZM18.0276 26.6317L17.6338 26.0867L17.842 25.9447L18.2357 26.4897L18.0276 26.6317ZM17.2401 25.5469L16.8464 25.0019L17.0546 24.8617L17.4483 25.4068L17.2401 25.5469ZM16.4527 24.4587L16.0573 23.9137L16.2654 23.7717L16.6591 24.3167L16.4527 24.4587ZM15.6618 23.3774L15.2664 22.8324L15.4745 22.6922L15.8699 23.2355L15.6618 23.3774ZM14.8727 22.2874L14.4789 21.7442L14.6871 21.6022L15.0808 22.1472L14.8727 22.2874ZM14.0835 21.1992L13.6898 20.6542L13.8979 20.5122L14.2916 21.0485L14.0835 21.1992ZM13.2961 20.1092L12.9041 19.5554L13.1122 19.4152L13.5059 19.9602L13.2961 20.1092ZM12.5069 19.0209L12.1115 18.4706L12.3196 18.3287L12.715 18.8737L12.5069 19.0209ZM11.7178 17.9309L11.324 17.3859L11.5322 17.2457L11.9259 17.7907L11.7178 17.9309ZM10.9286 16.8426L10.5349 16.2976L10.743 16.1557L11.1367 16.7007L10.9286 16.8426ZM10.1412 15.7526L9.74572 15.2076L9.95385 15.0674L10.3476 15.6107L10.1412 15.7526ZM9.35201 14.6626L8.95656 14.1194L9.16469 13.9774L9.56014 14.5224L9.35201 14.6626ZM8.56805 13.5638L8.16914 13.0206L8.37727 12.8786L8.77098 13.4236L8.56805 13.5638ZM7.77889 12.4738L7.38518 11.9288L7.59331 11.7886L7.98182 12.3371L7.77889 12.4738ZM6.99147 11.3856L6.59602 10.8406L6.80415 10.6986L7.19786 11.2436L6.99147 11.3856ZM6.20231 10.2956L5.80859 9.75055L6.01499 9.61035L6.41044 10.1554L6.20231 10.2956Z" fill="#0A7C79"/>
<path d="M24.6062 7.60576L20.2303 10.7461L17.1274 9.00771L17.8715 8.48198C18.4577 7.99305 17.5246 6.66296 16.7736 6.90479L14.9628 8.18757C14.9628 8.18757 10.3632 5.61851 9.03459 6.5876C8.5885 6.86888 8.15774 7.17424 7.74419 7.50237L11.6761 10.1152C11.3292 10.4132 11.1211 10.641 11.1558 10.7076C11.1905 10.7742 11.5495 10.627 12.0126 10.3466L13.6932 11.4611C13.3828 11.7327 13.2024 11.9395 13.244 11.9991C13.2857 12.0587 13.6013 11.9343 14.0245 11.6819L16.5464 13.3537L11.5426 17.6963L6.9585 16.2943L5.79297 17.1197L9.92955 19.8728C9.92955 19.8728 8.14657 21.3606 8.4605 21.811C8.77443 22.2613 10.7655 21.0767 10.7655 21.0767L11.9224 25.9449L13.0897 25.1301L13.4019 20.5404L19.1116 17.0549L19.6319 19.2769C19.285 19.5714 19.0821 19.8027 19.1272 19.864C19.1723 19.9253 19.3943 19.836 19.7203 19.6555L20.1886 21.6252C19.7654 21.9757 19.5053 22.2491 19.5538 22.3262C19.6024 22.4033 19.8868 22.2718 20.284 22.0388L21.5397 27.3767C21.9864 27.0948 22.4177 26.7888 22.8319 26.4602C24.1847 25.5296 23.3522 20.2846 23.3522 20.2846L25.1681 18.9966C25.6503 18.3569 24.7276 17.0268 24.072 17.4194L23.3262 17.9451L22.9203 14.3L27.1055 11.3682C27.1055 11.3682 30.1338 9.07781 29.3377 7.02221C27.6969 5.56068 24.6062 7.60576 24.6062 7.60576Z" fill="white"/>
</g>
<g clip-path="url(#clip1_309_816)" filter="url(#filter0_d_309_816)">
<path d="M51.6898 6V6.1806C51.7058 6.73137 51.6019 7.27857 51.3863 7.7789C51.1676 8.15062 50.8633 8.45595 50.5028 8.66564C50.1429 8.86891 49.7483 8.9918 49.3427 9.02683C48.9201 9.06657 48.4968 9.08643 48.073 9.08643H45.8642V22.1527C45.8642 23.435 45.8822 24.4259 45.9181 25.1254C45.9541 25.8249 45.9822 26.2535 46.0024 26.4112V26.6478H45.8338C45.2966 26.6675 44.7627 26.5505 44.2758 26.3065C43.8765 26.0957 43.5297 25.7862 43.2641 25.4035C43.008 25.0334 42.825 24.6112 42.7263 24.1628C42.6259 23.7169 42.5749 23.2598 42.5745 22.8011V10.0219C42.5745 9.86481 42.5745 9.70769 42.588 9.54876C42.6015 9.38983 42.6116 9.23452 42.6301 9.07559H41.2239C40.0267 9.07559 39.0971 9.09546 38.435 9.13519C37.7729 9.17493 37.3682 9.20442 37.221 9.22369H37.1653L37.1097 9.25258L37.054 9.19479C37.046 9.1873 37.0395 9.17816 37.0349 9.16793C37.0303 9.15769 37.0276 9.14656 37.027 9.13519C37.0085 9.13519 37.0001 9.11532 37.0001 9.07559C36.981 8.52108 37.0972 7.97081 37.3373 7.4791C37.5407 7.10383 37.8372 6.79627 38.1939 6.59056C38.5639 6.3954 38.9637 6.27306 39.3742 6.22936C39.7913 6.18014 40.2107 6.15543 40.6304 6.15532H47.5065C48.7037 6.15532 49.6288 6.14027 50.2819 6.11017C50.9344 6.08127 51.3358 6.05599 51.4824 6.03612H51.5381V6.00723L51.6898 6Z" fill="white"/>
<path d="M56.2475 9.63725C56.07 9.96539 55.8184 10.2405 55.5157 10.4373C55.2297 10.628 54.8999 10.7299 54.563 10.7317C54.2641 10.7264 53.9705 10.6453 53.7065 10.4951C53.4214 10.3288 53.1872 10.078 53.032 9.77269C52.8753 9.4693 52.7941 9.1279 52.7959 8.7812C52.8002 8.41059 52.8856 8.04622 53.0455 7.71748C53.2225 7.38947 53.4743 7.11485 53.7773 6.91923C54.0716 6.72458 54.411 6.62199 54.7569 6.62306C55.0476 6.62223 55.3332 6.70386 55.5848 6.85964C55.8827 7.02088 56.1249 7.27961 56.2762 7.59829C56.4203 7.90092 56.4959 8.2356 56.497 8.57532C56.4926 8.94534 56.4071 9.30907 56.2475 9.63725ZM56.4684 26.6442H56.2998C55.7621 26.6647 55.2276 26.5483 54.7401 26.3047C54.3408 26.0939 53.994 25.7843 53.7284 25.4017C53.4757 25.0208 53.2931 24.5917 53.1905 24.1375C53.0902 23.6922 53.0393 23.2357 53.0387 22.7776V16.7059C53.0399 16.243 53.0908 15.7819 53.1905 15.3315C53.2866 14.8749 53.4697 14.4445 53.7284 14.0673C53.9949 13.6856 54.3415 13.3763 54.7401 13.1643C55.2279 12.9215 55.7622 12.8052 56.2998 12.8248H56.4684C56.4313 13.186 56.4026 13.5689 56.3841 13.9933C56.3655 14.4177 56.352 14.8367 56.3436 15.2575C56.3352 15.6783 56.3301 16.0611 56.3301 16.4259V23.0214C56.3301 23.3826 56.3301 23.7799 56.3436 24.2043C56.3571 24.6287 56.3655 25.0531 56.3841 25.4685C56.4026 25.8839 56.4313 26.2902 56.4684 26.6442Z" fill="white"/>
<path d="M64.7526 15.3462C64.4576 15.3749 64.1661 15.4354 63.8825 15.5268C63.53 15.6469 63.2115 15.8606 62.9568 16.148C62.617 16.5424 62.3539 17.0053 62.1829 17.5097C61.9581 18.1009 61.8294 18.8991 61.7968 19.9045V20.3199C61.7916 20.7508 61.8243 21.1813 61.8946 21.6057C61.9493 21.9351 62.0369 22.2572 62.1559 22.5665C62.3421 23.0496 62.6362 23.4763 63.0125 23.809C63.2926 24.0648 63.6228 24.25 63.9787 24.3508C64.2311 24.4267 64.4907 24.4715 64.7526 24.4845C65.0939 24.4884 65.4341 24.4435 65.7643 24.3508C66.0695 24.2623 66.3578 24.1702 66.6343 24.0691C66.9109 23.9679 67.1739 23.8488 67.4218 23.7585C67.6575 23.6725 67.9046 23.628 68.1536 23.6266C68.4065 23.6197 68.6559 23.6912 68.8719 23.8325C69.1183 24.0186 69.3328 24.2489 69.5059 24.5134L69.5615 24.6325L69.4789 24.721C68.8707 25.4312 68.1326 25.9998 67.3105 26.3916C66.4624 26.7991 65.5422 27.0061 64.6126 26.9984C63.7332 27.0116 62.8616 26.82 62.0581 26.4367C61.3195 26.0812 60.6567 25.5674 60.1106 24.9269C59.569 24.2623 59.1476 23.4956 58.8679 22.6658C58.57 21.7892 58.4205 20.8627 58.4261 19.9298C58.417 18.9778 58.5813 18.0331 58.9101 17.1485C59.2229 16.3181 59.6769 15.5569 60.2489 14.9037C60.8019 14.2716 61.463 13.7591 62.1964 13.3939C62.9529 13.017 63.7783 12.8251 64.6126 12.8322C65.5422 12.8245 66.4624 13.0315 67.3105 13.439C68.1308 13.8314 68.8671 14.4 69.4738 15.1096L69.5564 15.1981L69.5008 15.3173C69.4174 15.4647 69.3152 15.599 69.1973 15.7164C69.0921 15.8193 68.9794 15.9129 68.8601 15.9963C68.6535 16.1363 68.4132 16.2085 68.1687 16.204C67.9233 16.2032 67.6802 16.1529 67.4521 16.0559C67.2127 15.9584 66.9637 15.8597 66.7052 15.7597C66.4303 15.6622 66.1437 15.5683 65.8503 15.4798C65.5349 15.3881 65.2092 15.3431 64.8824 15.3462H64.7526Z" fill="white"/>
<path d="M83.0321 25.7859L82.9225 25.9051C82.4559 26.3689 81.8459 26.6319 81.2094 26.6438C80.9471 26.6434 80.6865 26.5989 80.4371 26.5119C80.1755 26.4203 79.9248 26.296 79.6902 26.1417C79.4542 25.9868 79.2323 25.8084 79.0275 25.609C78.8252 25.4127 78.6228 25.2056 78.4205 24.9877C77.7022 24.1208 77.0581 23.3418 76.4882 22.6507C76.2487 22.3564 76.0127 22.0656 75.7833 21.7785L75.1628 21.0091C74.9774 20.7834 74.8256 20.5955 74.7059 20.4474C74.5862 20.2994 74.517 20.2163 74.5002 20.1964V23.021C74.5002 23.3822 74.5002 23.7795 74.5137 24.2039C74.5272 24.6283 74.5406 25.0527 74.5693 25.4681C74.598 25.8835 74.6283 26.2826 74.6654 26.6366H74.4715C73.9385 26.654 73.409 26.5377 72.9253 26.297C72.5218 26.0885 72.1713 25.7787 71.9035 25.394C71.6508 25.0131 71.4682 24.584 71.3656 24.1298C71.2653 23.6845 71.2144 23.2281 71.2139 22.7699V10.0215C71.2144 9.56337 71.2653 9.10692 71.3656 8.66158C71.4686 8.2075 71.6511 7.7785 71.9035 7.39739C72.1718 7.01321 72.5222 6.70355 72.9253 6.4944C73.4092 6.25451 73.9385 6.13829 74.4715 6.15488H74.6654C74.6283 6.50885 74.5963 6.89834 74.5693 7.32335C74.5406 7.74776 74.5221 8.17036 74.5137 8.58754C74.5052 9.00472 74.5002 9.40565 74.5002 9.77046V17.3556L75.4933 16.3497L76.0869 15.8079C76.2251 15.6796 76.3533 15.5568 76.4747 15.4376C76.5961 15.3184 76.736 15.183 76.9013 15.0241L77.6196 14.3432C77.9903 13.9669 78.4086 13.6483 78.8623 13.3969C79.2956 13.1484 79.7787 13.0164 80.2702 13.0122C80.6094 13.0142 80.9442 13.0949 81.2515 13.2488C81.6015 13.429 81.9153 13.6805 82.1756 13.9892L82.2599 14.1066L77.5639 18.9015L83.0321 25.7859Z" fill="white"/>
<path d="M87.8645 9.63725C87.6875 9.96578 87.4357 10.241 87.1327 10.4373C86.8469 10.6285 86.517 10.7305 86.18 10.7317C85.8811 10.7262 85.5876 10.6451 85.3234 10.4951C85.0394 10.3275 84.8055 10.077 84.649 9.7727C84.4928 9.46917 84.4121 9.12775 84.4146 8.78121C84.4183 8.41073 84.5032 8.04636 84.6625 7.71749C84.8395 7.38948 85.0913 7.11485 85.3943 6.91924C85.6891 6.72426 86.0291 6.62166 86.3756 6.62306C86.6662 6.6225 86.9518 6.70411 87.2035 6.85964C87.5013 7.02047 87.743 7.27937 87.8931 7.59829C88.038 7.90064 88.1137 8.23551 88.114 8.57533C88.1096 8.94534 88.0241 9.30908 87.8645 9.63725ZM88.0854 26.6442H87.9167C87.3791 26.6649 86.8445 26.5485 86.3571 26.3047C85.9574 26.0944 85.6105 25.7848 85.3454 25.4017C85.0921 25.0209 84.909 24.5918 84.8058 24.1375C84.7055 23.6922 84.6546 23.2357 84.654 22.7776V16.7059C84.6551 16.243 84.7061 15.7819 84.8058 15.3315C84.9025 14.8748 85.0862 14.4444 85.3454 14.0673C85.6115 13.6852 85.9582 13.3759 86.3571 13.1643C86.8448 12.9213 87.3792 12.805 87.9167 12.8248H88.0854C88.0483 13.186 88.0213 13.5689 88.0027 13.9933C87.9842 14.4177 87.9707 14.8367 87.9606 15.2575C87.9505 15.6783 87.9471 16.0611 87.9471 16.426V23.0214C87.9471 23.3826 87.9516 23.7769 87.9606 24.2043C87.9696 24.6317 87.9836 25.0531 88.0027 25.4685C88.0219 25.8983 88.0494 26.2902 88.0854 26.6442Z" fill="#FF3C13"/>
<path d="M91.9229 25.1955C91.416 24.5496 91.0276 23.8069 90.778 23.0066C90.4744 22.0165 90.3296 20.9784 90.3497 19.9365L90.321 13.9316C90.3042 12.9654 90.289 12.1418 90.2805 11.4628C90.2721 10.7837 90.262 10.2329 90.262 9.79946C90.262 9.36603 90.2435 9.05179 90.2333 8.82423C90.2232 8.59668 90.2199 8.454 90.2199 8.39621V8.33661L90.1929 8.15602H90.3615C90.9083 8.13849 91.4516 8.25525 91.9498 8.49735C92.3584 8.70363 92.7138 9.0136 92.9851 9.40034C93.2439 9.7813 93.4353 10.2098 93.55 10.6645C93.6638 11.1124 93.7205 11.5747 93.7186 12.0389V12.8371H93.8569C94.5201 12.8371 95.0585 12.8275 95.4722 12.8082L96.4654 12.7631C96.6916 12.756 96.917 12.7312 97.1398 12.689L97.332 12.6294V12.8371C97.332 13.5072 97.2224 14.0309 96.9948 14.4047C96.8182 14.791 96.5263 15.1031 96.1652 15.2915C95.8433 15.4898 95.4859 15.6129 95.1164 15.6527C94.7303 15.7014 94.3442 15.7375 93.9564 15.7556H93.7186V19.8967C93.7053 20.5986 93.775 21.2995 93.926 21.9826C94.0342 22.4739 94.2256 22.9398 94.4909 23.357C94.9326 24.0288 95.5773 24.3641 96.4249 24.3629C96.8828 24.354 97.3372 24.2744 97.7738 24.1263L97.9424 24.0667L97.9694 24.2473C97.991 24.3936 98 24.5417 97.9964 24.6898C98.0056 25.0203 97.9371 25.3481 97.7972 25.6428C97.6572 25.9376 97.4503 26.1899 97.1955 26.3766C96.645 26.7823 95.9883 26.9898 95.3205 26.969C94.6986 26.9661 94.0852 26.815 93.5247 26.5265C92.9095 26.2082 92.3637 25.7547 91.9229 25.1955Z" fill="white"/>
</g>
<defs>
<filter id="filter0_d_309_816" x="33" y="6" width="69" height="29" filterUnits="userSpaceOnUse" color-interpolation-filters="sRGB">
<feFlood flood-opacity="0" result="BackgroundImageFix"/>
<feColorMatrix in="SourceAlpha" type="matrix" values="0 0 0 0 0 0 0 0 0 0 0 0 0 0 0 0 0 0 127 0" result="hardAlpha"/>
<feOffset dy="4"/>
<feGaussianBlur stdDeviation="2"/>
<feComposite in2="hardAlpha" operator="out"/>
<feColorMatrix type="matrix" values="0 0 0 0 0 0 0 0 0 0 0 0 0 0 0 0 0 0 0.25 0"/>
<feBlend mode="normal" in2="BackgroundImageFix" result="effect1_dropShadow_309_816"/>
<feBlend mode="normal" in="SourceGraphic" in2="effect1_dropShadow_309_816" result="shape"/>
</filter>
<linearGradient id="paint0_linear_309_816" x1="4.12089" y1="25.4978" x2="30.0281" y2="6.51917" gradientUnits="userSpaceOnUse">
<stop stop-color="#EDF9F8"/>
<stop offset="0.473957" stop-color="#004D4A"/>
<stop offset="1" stop-color="#009B95"/>
</linearGradient>
<clipPath id="clip0_309_816">
<rect width="32" height="33" fill="white"/>
</clipPath>
<clipPath id="clip1_309_816">
<rect width="61" height="21" fill="white" transform="translate(37 6)"/>
</clipPath>
</defs>
</svg>
