<svg width="13" height="13" viewBox="0 0 13 13" fill="none" xmlns="http://www.w3.org/2000/svg">
<g clip-path="url(#clip0_2486_432)">
<path d="M11.96 1.86768H1.03997C0.764148 1.86768 0.499635 1.97529 0.304597 2.16683C0.109559 2.35836 0 2.61815 0 2.88902V11.9788C0 12.2497 0.109559 12.5095 0.304597 12.701C0.499635 12.8925 0.764148 13.0001 1.03997 13.0001H11.96C12.2358 13.0001 12.5004 12.8925 12.6954 12.701C12.8904 12.5095 13 12.2497 13 11.9788V2.9036C13.002 2.76826 12.9765 2.63388 12.9251 2.50827C12.8738 2.38267 12.7975 2.26836 12.7007 2.17197C12.6039 2.07558 12.4886 1.99904 12.3614 1.9468C12.2343 1.89456 12.0978 1.86766 11.96 1.86768ZM11.7817 10.8261C11.7817 11.0196 11.7034 11.2052 11.5641 11.342C11.4248 11.4788 11.2359 11.5557 11.0388 11.5557H1.97598C1.77896 11.5557 1.59002 11.4788 1.45071 11.342C1.3114 11.2052 1.23312 11.0196 1.23312 10.8261V5.07757C1.23312 4.88409 1.3114 4.69852 1.45071 4.56171C1.59002 4.4249 1.77896 4.34805 1.97598 4.34805H11.0388C11.2347 4.35179 11.4214 4.42984 11.5599 4.56585C11.6984 4.70186 11.7779 4.88526 11.7817 5.07757V10.8261Z" fill="#0A7C79"/>
<path d="M3.03109 3.39949C2.76709 3.39949 2.51386 3.29651 2.32718 3.11318C2.1405 2.92986 2.03564 2.6812 2.03564 2.42194V0.962902C2.03564 0.703639 2.1405 0.455004 2.32718 0.271677C2.51386 0.0883505 2.76709 -0.0146484 3.03109 -0.0146484C3.16181 -0.0146484 3.29123 0.0106282 3.412 0.0597549C3.53277 0.108882 3.64252 0.180903 3.73496 0.271677C3.82739 0.362452 3.90071 0.470213 3.95073 0.588815C4.00076 0.707417 4.0265 0.834528 4.0265 0.962902V2.42194C4.0265 2.55031 4.00076 2.67742 3.95073 2.79602C3.90071 2.91463 3.82739 3.02241 3.73496 3.11318C3.64252 3.20396 3.53277 3.27596 3.412 3.32508C3.29123 3.37421 3.16181 3.39949 3.03109 3.39949Z" fill="#0A7C79"/>
<path d="M9.96904 3.39949C9.70503 3.39949 9.45185 3.29651 9.26517 3.11318C9.07849 2.92986 8.97363 2.6812 8.97363 2.42194V0.962902C8.97363 0.703639 9.07849 0.455004 9.26517 0.271677C9.45185 0.0883505 9.70503 -0.0146484 9.96904 -0.0146484C10.0998 -0.0146484 10.2292 0.0106282 10.35 0.0597549C10.4708 0.108882 10.5805 0.180903 10.6729 0.271677C10.7653 0.362452 10.8387 0.470213 10.8887 0.588815C10.9387 0.707417 10.9645 0.834528 10.9645 0.962902V2.42194C10.9645 2.55031 10.9387 2.67742 10.8887 2.79602C10.8387 2.91463 10.7653 3.02241 10.6729 3.11318C10.5805 3.20396 10.4708 3.27596 10.35 3.32508C10.2292 3.37421 10.0998 3.39949 9.96904 3.39949Z" fill="#0A7C79"/>
<path d="M4.11534 6.08398H3.13477V7.04695H4.11534V6.08398Z" fill="#0A7C79"/>
<path d="M6.99766 6.08398H6.01709V7.04695H6.99766V6.08398Z" fill="#0A7C79"/>
<path d="M9.86534 6.08398H8.88477V7.04695H9.86534V6.08398Z" fill="#0A7C79"/>
<path d="M4.11534 8.71045H3.13477V9.67341H4.11534V8.71045Z" fill="#0A7C79"/>
<path d="M6.99766 8.71045H6.01709V9.67341H6.99766V8.71045Z" fill="#0A7C79"/>
<path d="M9.86534 8.71045H8.88477V9.67341H9.86534V8.71045Z" fill="#0A7C79"/>
</g>
<defs>
<clipPath id="clip0_2486_432">
<rect width="13" height="13" fill="white"/>
</clipPath>
</defs>
</svg>
