<svg width="46" height="46" viewBox="0 0 46 46" fill="none" xmlns="http://www.w3.org/2000/svg">
<g clip-path="url(#clip0_255_1591)">
<path d="M15.4138 20.8222L8.00207 11.4057C7.8639 11.2301 7.76861 11.0248 7.72375 10.8059C7.6789 10.5871 7.68573 10.3608 7.74371 10.145C7.80168 9.92929 7.9092 9.73005 8.0577 9.56316C8.203 9.39987 8.38361 9.27196 8.58573 9.18911L8.77341 9.12765L14.0481 7.71291C14.3023 7.64486 14.5679 7.63049 14.828 7.6707C15.0833 7.71017 15.3277 7.80138 15.5464 7.93867L15.7552 8.09098L27.5965 17.8394L27.7753 17.9866L28.0032 17.9455L35.3479 16.6191C36.5453 16.4029 37.7783 16.4984 38.9282 16.8967C40.078 17.2949 41.106 17.9824 41.9133 18.8929L41.9134 18.8931C42.6906 19.7689 42.9948 20.8925 42.6284 21.9756L42.6284 21.9756C42.3244 22.8745 41.8168 23.691 41.1452 24.3614C40.4752 25.0301 39.6602 25.5354 38.7634 25.838L38.3817 25.9541L9.49242 33.6952C9.49236 33.6953 9.49231 33.6953 9.49225 33.6953C9.2139 33.7697 8.92065 33.768 8.64317 33.6904C8.37035 33.614 8.12262 33.467 7.92499 33.2642L7.78039 33.0927L1.69984 24.9662L1.69967 24.966C1.56783 24.79 1.47818 24.5861 1.43763 24.3699C1.39707 24.1538 1.4067 23.9313 1.46576 23.7194L0.986175 23.5857L1.46576 23.7194C1.52483 23.5076 1.63176 23.3122 1.7783 23.1483L1.40783 22.8171L1.7783 23.1483C1.92151 22.988 2.09881 22.8621 2.2971 22.7795L2.49309 22.7147L6.83003 21.5531L6.83013 21.5531C7.09737 21.4815 7.37705 21.4692 7.64954 21.5171C7.91835 21.5644 8.17373 21.6692 8.39825 21.8243L8.58656 21.9698L10.1003 23.301L10.3289 23.502L10.6125 23.3912L15.2029 21.5972L15.8307 21.3519L15.4138 20.8222ZM14.1948 10.6246H14.1291L14.0657 10.6415L12.2736 11.1207L11.5408 11.3167L12.0098 11.9129L19.2222 21.0822L19.2224 21.0824C19.7775 21.7874 19.5522 22.8059 18.7896 23.2246L18.6014 23.3129L10.5668 26.4502L10.5666 26.4503C10.3496 26.5352 10.1151 26.5659 9.88356 26.5399C9.65694 26.5145 9.43972 26.4354 9.24983 26.3094L9.08572 26.1818L7.28199 24.5951L7.08057 24.418L6.82158 24.4878L5.91883 24.7312L5.20707 24.9232L5.64861 25.5135L9.35736 30.4719L9.56014 30.743L9.88715 30.6554L37.6577 23.2149L37.6578 23.2149C38.6591 22.9465 39.4735 22.2292 39.8684 21.2793L39.9894 20.9882L39.7789 20.7536C39.3354 20.259 38.7822 19.8752 38.1638 19.6327C37.5453 19.3902 36.8787 19.2958 36.2172 19.3571L36.2061 19.3582L36.1951 19.3597L35.875 19.4038L35.8647 19.4052L35.8544 19.407L27.6434 20.8905L27.6433 20.8905C27.2951 20.9535 26.9361 20.8856 26.6351 20.7002L26.4659 20.5758L14.5165 10.7386L14.378 10.6246H14.1987H14.1948ZM40.2495 38.8336C40.6105 38.834 40.9578 38.9722 41.2204 39.2201C41.4829 39.468 41.6409 39.8068 41.6621 40.1672C41.6833 40.5277 41.566 40.8826 41.3342 41.1595C41.1054 41.4329 40.782 41.6099 40.4286 41.6553L40.2351 41.6669H5.75056C5.38948 41.6665 5.04218 41.5283 4.77962 41.2804C4.51706 41.0325 4.35906 40.6937 4.3379 40.3333C4.31673 39.9728 4.43401 39.6179 4.66576 39.341C4.89462 39.0676 5.21803 38.8906 5.57135 38.8452L5.76495 38.8336H40.2495Z" stroke="#0A7C79"/>
</g>
<defs>
<clipPath id="clip0_255_1591">
<rect width="46" height="46" fill="white"/>
</clipPath>
</defs>
</svg>
