<svg width="46" height="46" viewBox="0 0 46 46" fill="none" xmlns="http://www.w3.org/2000/svg">
<path d="M33.8423 31.9256C31.7135 34.0544 26.8301 38.9379 24.411 41.3569C23.63 42.138 22.3701 42.138 21.5891 41.357C19.2089 38.9768 14.4334 34.2013 12.1577 31.9256C6.16968 25.9376 6.16968 16.2291 12.1577 10.241C18.1458 4.25299 27.8543 4.25299 33.8423 10.241C39.8304 16.2291 39.8304 25.9376 33.8423 31.9256Z" stroke="#0A7C79" stroke-width="1.5" stroke-linecap="round" stroke-linejoin="round"/>
<path d="M28.75 21.0833C28.75 24.259 26.1757 26.8333 23 26.8333C19.8244 26.8333 17.25 24.259 17.25 21.0833C17.25 17.9077 19.8244 15.3333 23 15.3333C26.1757 15.3333 28.75 17.9077 28.75 21.0833Z" stroke="#0A7C79" stroke-width="1.5" stroke-linecap="round" stroke-linejoin="round"/>
</svg>
