<svg width="8" height="12" viewBox="0 0 8 12" fill="none" xmlns="http://www.w3.org/2000/svg">
<g clip-path="url(#clip0_2482_412)">
<path d="M3.99045 4.75498e-05C2.93211 4.75498e-05 1.91711 0.441792 1.16874 1.22813C0.42038 2.01448 0 3.08099 0 4.19304C0 6.52915 3.99045 12 3.99045 12C3.99045 12 7.99998 6.52915 7.99998 4.19304C7.99999 3.64072 7.89616 3.09384 7.69443 2.58382C7.4927 2.07379 7.19702 1.61068 6.82446 1.22107C6.45189 0.831446 6.00978 0.523 5.52344 0.31346C5.03709 0.103919 4.51609 -0.00258254 3.99045 4.75498e-05ZM3.99045 6.24961C3.61462 6.24961 3.24723 6.1325 2.93473 5.91311C2.62224 5.69371 2.37873 5.38189 2.2349 5.01705C2.09108 4.6522 2.05343 4.25074 2.12675 3.86342C2.20007 3.4761 2.38106 3.12032 2.64681 2.84108C2.91256 2.56184 3.25117 2.37167 3.61978 2.29462C3.98839 2.21758 4.37043 2.25714 4.71766 2.40827C5.06488 2.55939 5.36166 2.81529 5.57047 3.14364C5.77927 3.47199 5.89069 3.85803 5.89069 4.25294C5.89069 4.78249 5.69052 5.29035 5.33415 5.6648C4.97779 6.03925 4.49443 6.24961 3.99045 6.24961Z" fill="#0A7C79"/>
</g>
<defs>
<clipPath id="clip0_2482_412">
<rect width="8" height="12" fill="white"/>
</clipPath>
</defs>
</svg>
