<svg width="46" height="46" viewBox="0 0 46 46" fill="none" xmlns="http://www.w3.org/2000/svg">
<path d="M40.25 25.4064C34.923 27.5627 29.1002 28.7501 23 28.7501C16.8998 28.7501 11.077 27.5627 5.75 25.4064M30.6667 11.5002V7.66683C30.6667 5.54974 28.9504 3.8335 26.8333 3.8335H19.1667C17.0496 3.8335 15.3333 5.54974 15.3333 7.66683V11.5002M23 23.0002H23.0192M9.58333 38.3335H36.4167C38.5338 38.3335 40.25 36.6173 40.25 34.5002V15.3335C40.25 13.2164 38.5338 11.5002 36.4167 11.5002H9.58333C7.46624 11.5002 5.75 13.2164 5.75 15.3335V34.5002C5.75 36.6173 7.46624 38.3335 9.58333 38.3335Z" stroke="#0A7C79" stroke-width="1.5" stroke-linecap="round" stroke-linejoin="round"/>
</svg>
