<svg width="12" height="12" viewBox="0 0 12 12" fill="none" xmlns="http://www.w3.org/2000/svg">
<g clip-path="url(#clip0_2486_398)">
<path d="M0.848706 5.99979L0.0394886 7.85506C-0.00401703 7.94911 -0.0140133 8.05521 0.0111193 8.15574C0.036252 8.25627 0.0950151 8.34518 0.177661 8.40769C0.257 8.469 0.353747 8.50353 0.453976 8.50635C0.572854 8.50159 0.685595 8.45225 0.769772 8.36818L2.90135 6.39449L0.848706 5.99979Z" fill="#0A7C79"/>
<path d="M0.848706 6L0.0394887 4.02632C-0.00401701 3.93227 -0.0140133 3.82617 0.0111194 3.72564C0.036252 3.62511 0.0950151 3.5362 0.177661 3.47369C0.257 3.41238 0.353747 3.37779 0.453976 3.37497C0.572854 3.37973 0.685595 3.42906 0.769772 3.51314L2.90135 5.58548L0.848706 6Z" fill="#0A7C79"/>
<path d="M4.46048 6.71054L2.6447 11.4671C2.62276 11.5257 2.61506 11.5886 2.62223 11.6508C2.6294 11.7129 2.65123 11.7724 2.68593 11.8245C2.72062 11.8765 2.76718 11.9196 2.82178 11.9501C2.87638 11.9806 2.93744 11.9977 2.99994 12L3.3355 12C3.43494 11.9992 3.53289 11.9758 3.62184 11.9313C3.71079 11.8868 3.78837 11.8226 3.84864 11.7435L8.01312 6.55267L4.46048 6.71054Z" fill="#0A7C79"/>
<path d="M4.46055 5.26981L2.68425 0.51328C2.66231 0.454704 2.65461 0.391708 2.66178 0.329572C2.66895 0.267437 2.69078 0.207906 2.72548 0.155863C2.76017 0.10382 2.80673 0.0607944 2.86133 0.0302792C2.91593 -0.000236031 2.97699 -0.0173702 3.0395 -0.0196533L3.37502 -0.0196533C3.47447 -0.0189013 3.57244 0.00465633 3.66139 0.0491319C3.75034 0.093607 3.82793 0.157829 3.8882 0.236935L8.05267 5.42773L4.46055 5.26981Z" fill="#0A7C79"/>
<path d="M11.3291 5.34865L12.0199 5.66444C12.0833 5.69208 12.1372 5.7376 12.1751 5.79545C12.213 5.8533 12.2332 5.92097 12.2332 5.99012C12.2332 6.05927 12.213 6.12688 12.1751 6.18473C12.1372 6.24258 12.0833 6.28816 12.0199 6.31579L11.3291 6.63153C11.0524 6.76559 10.7483 6.83319 10.4409 6.82891L0.829102 6.82891L0.829102 5.15127L10.5396 5.15127C10.8126 5.16853 11.0801 5.23542 11.3291 5.34865Z" fill="#0A7C79"/>
</g>
<defs>
<clipPath id="clip0_2486_398">
<rect width="12" height="12" fill="white" transform="translate(0 12) rotate(-90)"/>
</clipPath>
</defs>
</svg>
