<svg width="15" height="15" viewBox="0 0 15 15" fill="none" xmlns="http://www.w3.org/2000/svg">
<path fill-rule="evenodd" clip-rule="evenodd" d="M13.1251 12.5001C13.2844 12.5003 13.4377 12.5613 13.5535 12.6707C13.6693 12.78 13.739 12.9295 13.7484 13.0885C13.7577 13.2475 13.706 13.4041 13.6037 13.5263C13.5015 13.6484 13.3564 13.7269 13.1983 13.7457L13.1251 13.7501H1.87514C1.71584 13.7499 1.56262 13.6889 1.44678 13.5796C1.33095 13.4702 1.26124 13.3208 1.2519 13.1618C1.24257 13.0027 1.29431 12.8461 1.39655 12.724C1.4988 12.6018 1.64383 12.5233 1.80201 12.5045L1.87514 12.5001H13.1251ZM4.53889 2.35762C4.64365 2.32958 4.75309 2.32366 4.86027 2.34023C4.96744 2.3568 5.06999 2.3955 5.16139 2.45387L5.23764 2.5095L9.10264 5.69137L11.4976 5.25887C11.9157 5.18338 12.3461 5.21674 12.7475 5.35576C13.1489 5.49478 13.5077 5.73476 13.7895 6.05262C14.0751 6.3745 14.1964 6.80075 14.0551 7.21825C13.948 7.53516 13.769 7.82303 13.5322 8.05937C13.2954 8.29572 13.0073 8.47415 12.6901 8.58075L12.5608 8.62012L3.13764 11.1451C3.01863 11.177 2.89325 11.1763 2.77462 11.143C2.65598 11.1098 2.54845 11.0454 2.46326 10.9564L2.40951 10.8926L0.423886 8.23887C0.365925 8.1615 0.32651 8.07185 0.30868 7.97683C0.29085 7.88181 0.295083 7.78397 0.321051 7.69085C0.347019 7.59773 0.394028 7.51181 0.458454 7.43973C0.52288 7.36765 0.603001 7.31134 0.692637 7.27512L0.766386 7.25075L2.18514 6.87075C2.29526 6.84123 2.41052 6.83617 2.52281 6.85593C2.6351 6.87568 2.7417 6.91978 2.83514 6.98512L2.90389 7.03825L3.40139 7.47575L4.89826 6.89075L2.48139 3.82012C2.42064 3.74294 2.37875 3.65266 2.35903 3.55644C2.33931 3.46023 2.34231 3.36074 2.3678 3.26589C2.39329 3.17104 2.44056 3.08345 2.50584 3.01008C2.57113 2.93671 2.65264 2.87958 2.74389 2.84325L2.81451 2.82012L4.53889 2.35762V2.35762ZM4.62889 3.62762L4.04451 3.78387L6.39639 6.77387C6.64201 7.08575 6.54014 7.53637 6.20076 7.71887L6.13014 7.752L3.50514 8.777C3.40972 8.8143 3.30665 8.82782 3.20484 8.81639C3.10303 8.80495 3.00553 8.76891 2.92076 8.71137L2.85889 8.66325L2.26701 8.14262L1.97264 8.222L3.18201 9.83887L12.2376 7.41262C12.5151 7.33825 12.7408 7.1395 12.8501 6.87637C12.7225 6.73405 12.5633 6.62358 12.3853 6.5538C12.2073 6.48401 12.0155 6.45686 11.8251 6.4745L11.7208 6.48887L9.04326 6.97262C8.8878 7.00071 8.72745 6.96949 8.59389 6.88512L8.53014 6.83825L4.63014 3.62762H4.62889Z" fill="#0EBAB5"/>
</svg>
