<svg width="12" height="15" viewBox="0 0 12 15" fill="none" xmlns="http://www.w3.org/2000/svg">
<path d="M5.72587 7.58065C7.26693 7.58065 8.5162 6.33138 8.5162 4.79033C8.5162 3.24927 7.26693 2 5.72587 2C4.18482 2 2.93555 3.24927 2.93555 4.79033C2.93555 6.33138 4.18482 7.58065 5.72587 7.58065Z" fill="#0A7C79"/>
<path d="M11.3871 15C11.3871 14.9032 11.3871 14.8064 11.3871 14.7097C11.3871 13.1996 10.7873 11.7515 9.71951 10.6837C8.65176 9.61596 7.20358 9.01611 5.69355 9.01611C4.18353 9.01611 2.73539 9.61596 1.66764 10.6837C0.599891 11.7515 0 13.1996 0 14.7097C0 14.8064 0 14.9032 0 15H11.3871Z" fill="#0A7C79"/>
</svg>
